<svg width="33" height="33" viewBox="0 0 33 33" fill="none" xmlns="http://www.w3.org/2000/svg">
<circle cx="16.5" cy="16.5" r="16" transform="rotate(90 16.5 16.5)" fill="#FFECE6" stroke="#3A231F"/>
<path d="M23.6342 14.215C23.7115 14.1463 23.8024 14.0926 23.9017 14.057C24.0011 14.0214 24.1069 14.0045 24.2132 14.0073C24.3195 14.0101 24.4242 14.0326 24.5212 14.0735C24.6182 14.1143 24.7058 14.1728 24.7788 14.2454C24.8518 14.3181 24.9089 14.4036 24.9468 14.497C24.9847 14.5904 25.0027 14.69 24.9997 14.7899C24.9967 14.8899 24.9728 14.9883 24.9293 15.0795C24.8859 15.1708 24.8237 15.2531 24.7464 15.3218L17.4611 21.7919C17.3108 21.9255 17.1119 22 16.905 22C16.6982 22 16.4992 21.9255 16.3489 21.7919L9.06282 15.3218C8.98385 15.2535 8.92008 15.1712 8.87521 15.0797C8.83035 14.9881 8.80528 14.889 8.80148 14.7882C8.79767 14.6874 8.81519 14.587 8.85303 14.4926C8.89087 14.3982 8.94827 14.3119 9.0219 14.2386C9.09552 14.1653 9.18391 14.1064 9.28192 14.0655C9.37992 14.0246 9.4856 14.0024 9.59282 14.0002C9.70003 13.998 9.80664 14.0158 9.90645 14.0527C10.0063 14.0896 10.0973 14.1448 10.1742 14.215L16.905 20.1919L23.6342 14.215Z" fill="#3A231F"/>
</svg>
