<svg width="23" height="23" viewBox="0 0 23 23" fill="none" xmlns="http://www.w3.org/2000/svg">
<path d="M15.9922 3.59375C14.1369 3.59375 12.5125 4.39156 11.5 5.74012C10.4875 4.39156 8.86309 3.59375 7.00781 3.59375C5.53098 3.59541 4.11512 4.18282 3.07085 5.2271C2.02657 6.27137 1.43916 7.68724 1.4375 9.16406C1.4375 15.4531 10.7624 20.5437 11.1595 20.7539C11.2642 20.8102 11.3812 20.8397 11.5 20.8397C11.6188 20.8397 11.7358 20.8102 11.8405 20.7539C12.2376 20.5437 21.5625 15.4531 21.5625 9.16406C21.5608 7.68724 20.9734 6.27137 19.9292 5.2271C18.8849 4.18282 17.469 3.59541 15.9922 3.59375ZM11.5 19.2984C9.85945 18.3425 2.875 13.9878 2.875 9.16406C2.87643 8.06841 3.3123 7.01804 4.08705 6.2433C4.86179 5.46855 5.91216 5.03268 7.00781 5.03125C8.75527 5.03125 10.2224 5.96203 10.8352 7.45703C10.8893 7.58886 10.9814 7.70161 11.0998 7.78096C11.2182 7.86031 11.3575 7.90268 11.5 7.90268C11.6425 7.90268 11.7818 7.86031 11.9002 7.78096C12.0186 7.70161 12.1107 7.58886 12.1648 7.45703C12.7776 5.95934 14.2447 5.03125 15.9922 5.03125C17.0878 5.03268 18.1382 5.46855 18.913 6.2433C19.6877 7.01804 20.1236 8.06841 20.125 9.16406C20.125 13.9806 13.1387 18.3416 11.5 19.2984Z" fill="#FFF3F0" fill-opacity="0.866667"/>
</svg>
