<svg width="20" height="20" viewBox="0 0 20 20" fill="none" xmlns="http://www.w3.org/2000/svg">
<path fill-rule="evenodd" clip-rule="evenodd" d="M9.95246 1.04166C8.02829 1.04166 6.52079 1.04166 5.34413 1.19999C4.14079 1.36166 3.19079 1.69999 2.44496 2.44499C1.69913 3.19082 1.36163 4.14082 1.19996 5.34499C1.04163 6.52082 1.04163 8.02832 1.04163 9.95249V10.0475C1.04163 11.9717 1.04163 13.4792 1.19996 14.6558C1.36163 15.8592 1.69996 16.8092 2.44496 17.555C3.19079 18.3008 4.14079 18.6383 5.34496 18.8C6.52079 18.9583 8.02829 18.9583 9.95246 18.9583H10.0475C11.9716 18.9583 13.4791 18.9583 14.6558 18.8C15.8591 18.6383 16.8091 18.3 17.555 17.555C18.3008 16.8092 18.6383 15.8592 18.8 14.655C18.9583 13.4792 18.9583 11.9717 18.9583 10.0475V9.95249C18.9583 8.02832 18.9583 6.52082 18.8 5.34416C18.6383 4.14082 18.3 3.19082 17.555 2.44499C16.8091 1.69916 15.8591 1.36166 14.655 1.19999C13.4791 1.04166 11.9716 1.04166 10.0475 1.04166H9.95246ZM9.37496 2.29166C7.71329 2.29332 6.47746 2.30832 5.51163 2.43832C4.44579 2.58166 3.80329 2.85499 3.32829 3.32916C2.85413 3.80416 2.58163 4.44582 2.43829 5.51166C2.30913 6.47749 2.29329 7.71332 2.29163 9.37499H5.76163C5.46267 9.00099 5.2478 8.56698 5.13163 8.10249C4.68246 6.30832 6.30829 4.68249 8.10246 5.13166C8.56695 5.24783 9.00096 5.4627 9.37496 5.76166V2.29166ZM2.29163 10.625C2.29329 12.2867 2.30829 13.5225 2.43829 14.4883C2.58163 15.5542 2.85496 16.1967 3.32913 16.6717C3.80413 17.1458 4.44579 17.4183 5.51163 17.5617C6.47746 17.6908 7.71329 17.7067 9.37496 17.7083V11.77C9.04615 12.4277 8.54062 12.9809 7.91506 13.3674C7.2895 13.7539 6.56863 13.9585 5.83329 13.9583C5.66753 13.9583 5.50856 13.8925 5.39135 13.7753C5.27414 13.6581 5.20829 13.4991 5.20829 13.3333C5.20829 13.1676 5.27414 13.0086 5.39135 12.8914C5.50856 12.7742 5.66753 12.7083 5.83329 12.7083C6.44302 12.7085 7.03495 12.5028 7.5133 12.1248C7.99164 11.7467 8.32842 11.2183 8.46913 10.625H2.29163ZM10.625 17.7083C12.2866 17.7067 13.5225 17.6917 14.4883 17.5617C15.5541 17.4183 16.1966 17.145 16.6716 16.6708C17.1458 16.1958 17.4183 15.5542 17.5616 14.4883C17.6908 13.5225 17.7066 12.2867 17.7083 10.625H11.5308C11.6715 11.2183 12.0083 11.7467 12.4866 12.1248C12.965 12.5028 13.5569 12.7085 14.1666 12.7083C14.3324 12.7083 14.4914 12.7742 14.6086 12.8914C14.7258 13.0086 14.7916 13.1676 14.7916 13.3333C14.7916 13.4991 14.7258 13.6581 14.6086 13.7753C14.4914 13.8925 14.3324 13.9583 14.1666 13.9583C13.4313 13.9585 12.7104 13.7539 12.0849 13.3674C11.4593 12.9809 10.9538 12.4277 10.625 11.77V17.7083ZM17.7083 9.37499H14.2383C14.5375 9.00107 14.7527 8.56705 14.8691 8.10249C15.3175 6.30832 13.6916 4.68249 11.8983 5.13166C11.4335 5.24772 10.9992 5.4626 10.625 5.76166V2.29166C12.2866 2.29332 13.5225 2.30832 14.4883 2.43832C15.5541 2.58166 16.1966 2.85499 16.6716 3.32916C17.1458 3.80416 17.4183 4.44582 17.5616 5.51166C17.6908 6.47749 17.7066 7.71332 17.7083 9.37499ZM10.625 9.37499V8.35832C10.6264 7.8952 10.7821 7.44575 11.0675 7.081C11.3528 6.71624 11.7516 6.45697 12.2008 6.34416C12.4018 6.29396 12.6124 6.29665 12.812 6.35198C13.0117 6.40731 13.1936 6.51338 13.3401 6.65987C13.4866 6.80636 13.5926 6.98829 13.648 7.18794C13.7033 7.38759 13.706 7.59816 13.6558 7.79916C13.543 8.24806 13.284 8.64663 12.9196 8.93198C12.5552 9.21732 12.1061 9.37319 11.6433 9.37499H10.625ZM9.37496 8.35582C9.37298 7.89313 9.21702 7.44426 8.93169 7.08001C8.64636 6.71576 8.24789 6.45687 7.79913 6.34416C7.59813 6.29396 7.38756 6.29665 7.18791 6.35198C6.98826 6.40731 6.80633 6.51338 6.65984 6.65987C6.51335 6.80636 6.40728 6.98829 6.35195 7.18794C6.29662 7.38759 6.29393 7.59816 6.34413 7.79916C6.45687 8.24806 6.71589 8.64663 7.08031 8.93198C7.44472 9.21732 7.89379 9.37319 8.35663 9.37499H9.37496V8.35582Z" fill="#FFF3F0"/>
</svg>
