<svg width="20" height="20" viewBox="0 0 20 20" fill="none" xmlns="http://www.w3.org/2000/svg">
<path d="M10 12.5C11.3807 12.5 12.5 11.3807 12.5 10C12.5 8.61929 11.3807 7.5 10 7.5C8.61929 7.5 7.5 8.61929 7.5 10C7.5 11.3807 8.61929 12.5 10 12.5Z" stroke="#FFF3F0"/>
<path d="M11.4708 1.79332C11.165 1.66666 10.7767 1.66666 10 1.66666C9.22334 1.66666 8.83501 1.66666 8.52918 1.79332C8.32683 1.87708 8.14297 1.9999 7.98811 2.15476C7.83326 2.30962 7.71044 2.49347 7.62668 2.69582C7.55001 2.88166 7.51918 3.09916 7.50751 3.41499C7.50208 3.64326 7.43885 3.86643 7.32371 4.06362C7.20858 4.2608 7.04531 4.42557 6.84918 4.54249C6.64985 4.65397 6.4255 4.71305 6.19712 4.71422C5.96874 4.71538 5.7438 4.65859 5.54334 4.54916C5.26334 4.40082 5.06084 4.31916 4.86001 4.29249C4.42194 4.23488 3.97893 4.35358 3.62834 4.62249C3.36668 4.82499 3.17168 5.16082 2.78334 5.83332C2.39501 6.50582 2.20001 6.84166 2.15751 7.17082C2.12887 7.38787 2.14328 7.60843 2.1999 7.8199C2.25652 8.03138 2.35425 8.22963 2.48751 8.40332C2.61084 8.56332 2.78334 8.69749 3.05084 8.86582C3.44501 9.11332 3.69834 9.53499 3.69834 9.99999C3.69834 10.465 3.44501 10.8867 3.05084 11.1333C2.78334 11.3025 2.61001 11.4367 2.48751 11.5967C2.35425 11.7704 2.25652 11.9686 2.1999 12.1801C2.14328 12.3916 2.12887 12.6121 2.15751 12.8292C2.20084 13.1575 2.39501 13.4942 2.78251 14.1667C3.17168 14.8392 3.36584 15.175 3.62834 15.3775C3.80204 15.5107 4.00029 15.6085 4.21176 15.6651C4.42324 15.7217 4.6438 15.7361 4.86084 15.7075C5.06084 15.6808 5.26334 15.5992 5.54334 15.4508C5.7438 15.3414 5.96874 15.2846 6.19712 15.2858C6.4255 15.2869 6.64985 15.346 6.84918 15.4575C7.25168 15.6908 7.49084 16.12 7.50751 16.585C7.51918 16.9017 7.54918 17.1183 7.62668 17.3042C7.71044 17.5065 7.83326 17.6904 7.98811 17.8452C8.14297 18.0001 8.32683 18.1229 8.52918 18.2067C8.83501 18.3333 9.22334 18.3333 10 18.3333C10.7767 18.3333 11.165 18.3333 11.4708 18.2067C11.6732 18.1229 11.857 18.0001 12.0119 17.8452C12.1668 17.6904 12.2896 17.5065 12.3733 17.3042C12.45 17.1183 12.4808 16.9017 12.4925 16.585C12.5092 16.12 12.7483 15.69 13.1508 15.4575C13.3502 15.346 13.5745 15.2869 13.8029 15.2858C14.0313 15.2846 14.2562 15.3414 14.4567 15.4508C14.7367 15.5992 14.9392 15.6808 15.1392 15.7075C15.3562 15.7361 15.5768 15.7217 15.7883 15.6651C15.9997 15.6085 16.198 15.5107 16.3717 15.3775C16.6342 15.1758 16.8283 14.8392 17.2167 14.1667C17.605 13.4942 17.8 13.1583 17.8425 12.8292C17.8711 12.6121 17.8567 12.3916 17.8001 12.1801C17.7435 11.9686 17.6458 11.7704 17.5125 11.5967C17.3892 11.4367 17.2167 11.3025 16.9492 11.1342C16.7541 11.0153 16.5924 10.8489 16.4792 10.6506C16.3659 10.4522 16.3048 10.2284 16.3017 9.99999C16.3017 9.53499 16.555 9.11332 16.9492 8.86666C17.2167 8.69749 17.39 8.56332 17.5125 8.40332C17.6458 8.22963 17.7435 8.03138 17.8001 7.8199C17.8567 7.60843 17.8711 7.38787 17.8425 7.17082C17.7992 6.84249 17.605 6.50582 17.2175 5.83332C16.8283 5.16082 16.6342 4.82499 16.3717 4.62249C16.198 4.48923 15.9997 4.3915 15.7883 4.33488C15.5768 4.27826 15.3562 4.26385 15.1392 4.29249C14.9392 4.31916 14.7367 4.40082 14.4558 4.54916C14.2555 4.65844 14.0307 4.71515 13.8025 4.71399C13.5743 4.71282 13.3501 4.65382 13.1508 4.54249C12.9547 4.42557 12.7914 4.2608 12.6763 4.06362C12.5612 3.86643 12.4979 3.64326 12.4925 3.41499C12.4808 3.09832 12.4508 2.88166 12.3733 2.69582C12.2896 2.49347 12.1668 2.30962 12.0119 2.15476C11.857 1.9999 11.6732 1.87708 11.4708 1.79332Z" stroke="#FFF3F0"/>
</svg>
