<svg width="30" height="29" viewBox="0 0 30 29" fill="none" xmlns="http://www.w3.org/2000/svg">
<path d="M18.75 4.22917H11.25C7.45304 4.22917 4.375 7.20461 4.375 10.875V18.125C4.375 21.7954 7.45304 24.7708 11.25 24.7708H18.75C22.547 24.7708 25.625 21.7954 25.625 18.125V10.875C25.625 7.20461 22.547 4.22917 18.75 4.22917Z" stroke="#FFF3F0" stroke-opacity="0.866667" stroke-width="1.5" stroke-linecap="round" stroke-linejoin="round"/>
<path d="M15.0001 18.8573C17.4895 18.8573 19.5076 16.9065 19.5076 14.5C19.5076 12.0936 17.4895 10.1428 15.0001 10.1428C12.5106 10.1428 10.4926 12.0936 10.4926 14.5C10.4926 16.9065 12.5106 18.8573 15.0001 18.8573Z" stroke="#FFF3F0" stroke-opacity="0.866667" stroke-width="1.5" stroke-linecap="round" stroke-linejoin="round"/>
<path d="M21.1175 9.83101C21.8285 9.83101 22.405 9.27379 22.405 8.58643C22.405 7.89906 21.8285 7.34184 21.1175 7.34184C20.4064 7.34184 19.83 7.89906 19.83 8.58643C19.83 9.27379 20.4064 9.83101 21.1175 9.83101Z" fill="#FFF3F0" fill-opacity="0.866667"/>
</svg>
