<svg width="19" height="23" viewBox="0 0 19 23" fill="none" xmlns="http://www.w3.org/2000/svg">
<path d="M15.6 5.2H12.48V4.16C12.48 3.0567 12.0417 1.99859 11.2616 1.21844C10.4814 0.438284 9.4233 0 8.32 0C7.2167 0 6.15859 0.438284 5.37844 1.21844C4.59828 1.99859 4.16 3.0567 4.16 4.16V5.2H1.04C0.764175 5.2 0.499647 5.30957 0.304609 5.50461C0.109571 5.69965 0 5.96417 0 6.24V17.68C0 18.5075 0.328713 19.3011 0.913827 19.8862C1.49894 20.4713 2.29252 20.8 3.12 20.8H13.52C14.3475 20.8 15.1411 20.4713 15.7262 19.8862C16.3113 19.3011 16.64 18.5075 16.64 17.68V6.24C16.64 5.96417 16.5304 5.69965 16.3354 5.50461C16.1404 5.30957 15.8758 5.2 15.6 5.2ZM6.24 4.16C6.24 3.60835 6.45914 3.07929 6.84922 2.68922C7.23929 2.29914 7.76835 2.08 8.32 2.08C8.87165 2.08 9.40071 2.29914 9.79078 2.68922C10.1809 3.07929 10.4 3.60835 10.4 4.16V5.2H6.24V4.16ZM14.56 17.68C14.56 17.9558 14.4504 18.2204 14.2554 18.4154C14.0604 18.6104 13.7958 18.72 13.52 18.72H3.12C2.84417 18.72 2.57965 18.6104 2.38461 18.4154C2.18957 18.2204 2.08 17.9558 2.08 17.68V12.48V7.28H4.16V8.32C4.16 8.59582 4.26957 8.86035 4.46461 9.05539C4.65965 9.25043 4.92417 9.36 5.2 9.36C5.47582 9.36 5.74035 9.25043 5.93539 9.05539C6.13043 8.86035 6.24 8.59582 6.24 8.32V7.28H10.4V8.32C10.4 8.59582 10.5096 8.86035 10.7046 9.05539C10.8996 9.25043 11.1642 9.36 11.44 9.36C11.7158 9.36 11.9804 9.25043 12.1754 9.05539C12.3704 8.86035 12.48 8.59582 12.48 8.32V7.28H14.56V17.68Z" fill="#3A231F"/>
<circle cx="14.34" cy="18.38" r="4.5" fill="#FF7B85"/>
</svg>
