<svg width="28" height="29" viewBox="0 0 28 29" fill="none" xmlns="http://www.w3.org/2000/svg">
<path d="M24.5 9.83333V19.1667C24.5 20.7138 23.8854 22.1975 22.7915 23.2915C21.6975 24.3854 20.2138 25 18.6667 25H9.33333C7.78624 25 6.30251 24.3854 5.20854 23.2915C4.11458 22.1975 3.5 20.7138 3.5 19.1667V9.83333C3.5 8.28624 4.11458 6.80251 5.20854 5.70854C6.30251 4.61458 7.78624 4 9.33333 4H18.6667C20.2138 4 21.6975 4.61458 22.7915 5.70854C23.8854 6.80251 24.5 8.28624 24.5 9.83333Z" stroke="#FFF3F0" stroke-opacity="0.866667" stroke-width="1.5" stroke-linecap="round" stroke-linejoin="round"/>
<path d="M11.6666 14.5C10.9744 14.5 10.2977 14.7053 9.72213 15.0899C9.14656 15.4744 8.69796 16.0211 8.43305 16.6606C8.16814 17.3001 8.09883 18.0039 8.23388 18.6828C8.36893 19.3617 8.70227 19.9854 9.19175 20.4749C9.68124 20.9644 10.3049 21.2977 10.9838 21.4327C11.6627 21.5678 12.3665 21.4985 13.006 21.2336C13.6456 20.9687 14.1922 20.5201 14.5768 19.9445C14.9614 19.3689 15.1666 18.6922 15.1666 18V7.5C15.5551 8.66667 17.0333 11 19.8333 11" stroke="#FFF3F0" stroke-opacity="0.866667" stroke-width="1.5" stroke-linecap="round" stroke-linejoin="round"/>
</svg>
